<?xml version="1.0" encoding="UTF-8"?>
<svg viewBox="0 0 256 128" xmlns="http://www.w3.org/2000/svg">
    <defs>
        <filter id="Blurry">
            <feGaussianBlur in="SourceGraphic" stdDeviation="1" />
        </filter>
        <filter id="Blurrier">
            <feGaussianBlur in="SourceGraphic" stdDeviation="2" />
        </filter>
        <radialGradient id="blast_gradient" cx="50%" cy="50%" r="100%" fx="95%" fy="95%">
            <stop offset="0%" style="stop-color:rgb(255,255,255); stop-opacity:0.5"/>
            <stop offset="100%" style="stop-color:rgb(255,255,255); stop-opacity:1"/>
        </radialGradient>
    </defs>
    <g transform="skewX(-13)">
        <clipPath id="myclip">
            <path d="M120,47 l52,86 l11,-9 z" fill="red" stroke-width="0" >
                <animate attributeName="d" begin="1.667s" dur="0.333s" values= "M120,47 l52,86 a100,100,0,0,0,11,-9 z;M120,47 l52,86 a100,100,0,0,0,35,-36 z; M120,47 l52,86 a100,100,0,0,0,49,-87 z; M120,47 l52,86 a100,100,0,0,0,36,-136 z; M120,47 l52,86 a100,100,0,0,0,0,-171 z; M120,47 l52,86 a100,100,0,0,0,-50,-187 z; M120,47 l52,86 a100,100,0,0,0,-107,-171 z; M120,47 l52,86 a100,100,0,1,0,-138,-138 z; M120,47 l52,86 a100,100,0,1,0,-153,-90 z; M120,47 l52,86 a100,100,0,1,0,-140,-38 z; M120,47 l52,86 a100,100,0,1,0,-105,0 z; M120,47 l52,86 a100,100,0,1,0,-52,14 z; M120,47 l52,86 a100,100,0,1,0,-1,1 z" fill="freeze" />
                <animateTransform attributeName="transform" type="rotate" from="0 120 47" to="180 120 47" begin="1.667s" dur="0.333s" fill="freeze" />
            </path>
        </clipPath>
        <path id="clock" clip-path="url(#myclip)" d="m63.75,64c-0.5,-32 25.583298,-59.91667 57.25,-60c31.667007,-0.08333 58.332993,24.8333 58.5,58.5c0.167007,33.666702 -28.582993,57.25 -58,57.5c-29.416702,0.25 -57.25,-24 -57.75,-56zm56,-51.25c-17.916672,-0.166666 -33.333336,16.583332 -33,35.25c0.333336,18.666672 16.666664,33.083336 35.5,32.75c18.833344,-0.333336 32.5,-17.333332 32,-35.75c-0.5,-18.416668 -16.583328,-32.083334 -34.5,-32.25z" stroke="#ffffff" fill="#000000" opacity="0">
            <animate attributeType="CSS" attributeName="opacity" from="0" to="1" begin="1.667s" dur="0.1s" fill="freeze" />
            <set attributeName="clip-path" begin="2s" to="none" />
        </path>
        <circle fill-opacity="0" opacity="0" id="blast_ring" cx="120" cy="47" r="34" stroke-width="9" stroke="url(#blast_gradient)" clip-path="url(#clock)">
            <set attributeName="opacity" to="1" begin="2s" />
            <animateTransform attributeName="transform" type="translate" values="0 0;-195 -70" begin="2s" dur="0.1667s" fill="freeze"/>
            <animateTransform attributeName="transform" type="scale" values="1;2.5" begin="2s" dur="0.1667s" additive="sum" fill="freeze"/>
            <set attributeName="opacity" to="0" begin="2.1667s" />
        </circle>
        <path stroke-width="0" id="dial_short" d="m110,36.351398l0,-8.851398l-4.5,0l13.4048,-12.767801l13.571243,12.6308l-4.380844,0.077404l0.190399,8.107586l-9.035599,7.202011l-9.25,-6.398602z" stroke="#ffffff" fill="#000000" filter="url(#Blurrier)">
            <animateTransform attributeName="transform" type="rotate" from="-330 120 47" to="-30 120 47" begin="0s" dur="1.667s" fill="freeze" />
            <set attributeName="filter" begin="1.6s" to="none" />
        </path>
        <path id="dial_long" d="m130.764725,38.795677l12.656326,-0.173382l0.000015,-4.411766l12.693497,13.235294l-12.538712,13.854488l0.077393,-4.643963l-12.538696,-0.000008l-5.572754,-10.294113l5.222931,-7.566551z" stroke-width="0" fill="#000000" filter="url(#Blurrier)">
            <animateTransform attributeName="transform" type="rotate" from="-1980 120 47" to="-30 120 47" begin="0s" dur="1.667s" fill="freeze" />
            <set attributeName="filter" begin="1.6s" to="none" />
        </path>
        <circle cx="120" cy="47" id="dial_center" r="15.8" stroke-width="0" fill="#000000"/>
    </g>
    <path id="Timetrap" d="m8.36364,50.72728l30.515152,-0.000011l-0.560608,19.030315l-7.424248,-0.727272l-1.27272,26.893936l-12.515152,0.030296l-0.95455,-27.060593l-7.227271,1.227257l-0.560603,-19.393929l0,0z" stroke-width="2" stroke="#ffffff" fill="#000000" opacity="0">
        <animateTransform attributeName="transform" type="translate" values="-6 -19;0 0;-6 -19;0 0" begin="1.667s" dur="0.5" />
        <animateTransform attributeName="transform" type="scale" values="1.25;1;1.25;1" begin="1.667s" dur="0.5s" additive="sum"/>
        <animate attributeType="CSS" attributeName="opacity" from="0" to="1" begin="1.667s" dur="0.1667s" fill="freeze" />
    </path>
    <path id="tImetrap" d="m41.090912,95.606064l-2,-44.515152l17.590904,-0.151516l-1.80302,44.818188l-13.787884,-0.15152z" stroke-width="2" stroke="#ffffff" fill="#000000" opacity="0">
        <animateTransform attributeName="transform" type="translate" values="-12 -19;0 0;-12 -19;0 0" begin="1.733s" dur="0.5s" />
        <animateTransform attributeName="transform" type="scale" values="1.25;1;1.25;1" begin="1.733s" dur="0.5s" additive="sum"/>
        <animate attributeType="CSS" attributeName="opacity" from="0" to="1" begin="1.733s" dur="0.1667s" fill="freeze" />
    </path>
    <path id="tiMetrap" d="m59.81818,95.242439l-2.303028,-43.969707l13.757576,0l6.181808,14.181805l6.621216,-14.196957l12.469711,0.015152l-1.454552,43.81818l-8.560608,0.15152l-0.34848,-13.060608l-8.696968,13.803017l-9.121208,-13.924232l-0.363647,13.030304l-8.18182,0.151527z" stroke-width="2" stroke="#ffffff" fill="#000000" opacity="0">
        <animateTransform attributeName="transform" type="translate" values="-19 -19;0 0;-19 -19;0 0" begin="1.8s" dur="0.5s" />
        <animateTransform attributeName="transform" type="scale" values="1.25;1;1.25;1" begin="1.8s" dur="0.5s" additive="sum"/>
        <animate attributeType="CSS" attributeName="opacity" from="0" to="1" begin="1.8s" dur="0.1667s" fill="freeze" />
    </path>
    <path id="timEtrap" d="m99.075768,95.424248l-1.80304,-44.333336l25.272736,0.18182l-1.060616,17.81818c-2.737373,-0.242424 -7.132324,-0.820251 -7.937401,-0.177818c-0.805077,0.642433 -0.896156,4.189941 -0.087906,5.281868c0.80825,1.091927 5.181877,0.082817 8.116219,-0.013138l-1.393936,7.272713c-2.424248,-0.0606 -6.457634,-0.474167 -7.272736,0.367645c-0.815102,0.841812 -0.834099,4.935913 -0.181816,5.632355c0.652283,0.696442 3.277863,0.116081 5.090904,0c1.813042,-0.116081 2.793022,-0.204926 4.363647,-0.742668l-1.63636,8.742668l-21.469696,-0.030289z" stroke-width="2" stroke="#ffffff" fill="#000000" opacity="0">
        <animateTransform attributeName="transform" type="translate" values="-27 -19;0 0;-27 -19;0 0" begin="1.866s" dur="0.5s" />
        <animateTransform attributeName="transform" type="scale" values="1.25;1;1.25;1" begin="1.866s" dur="0.5s" additive="sum"/>
        <animate attributeType="CSS" attributeName="opacity" from="0" to="1" begin="1.866s" dur="0.1667s" fill="freeze" />
    </path>
    <path id="timeTrap" d="m133.636368,95.090912l-1.591904,-26.270721l-7.321198,0.404091l-0.363617,-17.858646l30.36763,-0.092903l-0.72728,18.092922l-7.365631,-0.408104l-1.361649,26.315178l-11.636353,-0.181816z" stroke-width="2" stroke="#ffffff" fill="#000000" opacity="0">
        <animateTransform attributeName="transform" type="translate" values="-35 -19;0 0;-35 -19;0 0" begin="1.933s" dur="0.5s" />
        <animateTransform attributeName="transform" type="scale" values="1.25;1;1.25;1" begin="1.933s" dur="0.5s" additive="sum"/>
        <animate attributeType="CSS" attributeName="opacity" from="0" to="1" begin="1.933s" dur="0.1667s" fill="freeze" />
    </path>
    <path id="timetRap" d="m155.636002,95.502991l-1.086548,-44.092926c14.428101,-1.743492 21.140381,-0.205101 25.164169,2.274734c4.023788,2.479836 6.08017,7.587585 6.561249,13.006004c0.481079,5.418411 -1.05899,11.927261 -8.092865,15.490997l7.503067,10.642372l-9.822433,5.543472l-6.226639,-12.913147l-0.000015,10.1819l-13.999985,-0.133408zm14.505463,-25.498985l-0.230453,8.998009c3.423538,-0.02964 5.174362,-1.916595 5.339539,-4.40406c0.165176,-2.487465 -1.581009,-4.581528 -5.109085,-4.593948z" stroke-width="2" stroke="#ffffff" fill="#000000" opacity="0">
        <animateTransform attributeName="transform" type="translate" values="-42 -19;0 0;-42 -19;0 0" begin="2s" dur="0.5s" />
        <animateTransform attributeName="transform" type="scale" values="1.25;1;1.25;1" begin="2s" dur="0.5s" additive="sum"/>
        <animate attributeType="CSS" attributeName="opacity" from="0" to="1" begin="2s" dur="0.1667s" fill="freeze" />
    </path>
    <path id="timetrAp" d="m185.727005,95.365196c1.28775,-7.379051 4.123779,-21.315468 4.81955,-24.869385c0.69577,-3.553917 1.801392,-12.02586 3.180222,-19.404911l14.455231,0l8.908997,44.363598l-13.636002,0l-0.910004,-3.8181l-5.863831,4.500214l-3.226166,-3.954811l-0.546005,3.090897l-7.181992,0.092499zm10.12616,-9.453667c0.399048,0.401573 1.395798,0.524796 2.377609,0.471718c0.981812,-0.053078 2.405823,-0.326439 2.756149,-0.663956c0.350327,-0.337517 -2.769485,-9.69722 -2.986923,-9.719292c-0.217438,-0.022072 -2.545883,9.509956 -2.146835,9.91153z" stroke-width="2" stroke="#ffffff" fill="#000000" opacity="0">
        <animateTransform attributeName="transform" type="translate" values="-50 -19;0 0;-50 -19;0 0" begin="2.066s" dur="0.5s" />
        <animateTransform attributeName="transform" type="scale" values="1.25;1;1.25;1" begin="2.066s" dur="0.5s" additive="sum"/>
        <animate attributeType="CSS" attributeName="opacity" from="0" to="1" begin="2.066s" dur="0.1667s" fill="freeze" />
    </path>
    <path id="timetraP" d="m217.903381,95.863846l-2.085388,-45.136547c10.576004,-0.666698 18.277008,-1.566799 23.432007,1.874702c5.154999,3.441498 7.796997,5.946999 8.546005,14.977299c0.374008,4.515152 -0.464844,9.57312 -3.628586,13.53447c-3.163742,3.961349 -7.492996,5.763275 -12.070801,5.988571l-0.363998,8.676331l-13.829239,0.085175zm14.6651,-26.204674c-0.060669,2.998093 -0.507813,8.701515 -0.182007,8.994286c0.325806,0.29277 4.514084,-1.38868 4.755188,-4.772949c0.241104,-3.38427 -1.87709,-4.422493 -4.573181,-4.221336z" stroke-width="2" stroke="#ffffff" fill="#000000" opacity="0">
        <animateTransform attributeName="transform" type="translate" values="-58 -19;0 0;-58 -19;0 0" begin="2.133s" dur="0.5s" />
        <animateTransform attributeName="transform" type="scale" values="1.25;1;1.25;1" begin="2.133s" dur="0.5s" additive="sum"/>
        <animate attributeType="CSS" attributeName="opacity" from="0" to="1" begin="2.133s" dur="0.1667s" fill="freeze" />
    </path>
</svg>
